:SAMPLES-PER-SECOND 30
:FULLY-SPECIFIED
:DEGREES
659
root  -3.24874 40.9392 1.01709 1.90527 -88.3689 -1.09592
RightUpLeg  5.087 -0.863249 -0.408888
RightLeg  -3.73391 -18.2682 1.1708
RightFoot  -1.15173 -0.197404 2.23091
RightToes  -3.10678e-008 1.75238e-005 3.56266e-009
Spine  -4.25578 0.615204 -4.66622
Spine1  5.59852 -0.488795 6.32756
HEad  -10.5511 -4.4195 -3.08659
LeftShoulder1  1.62685 -1.74437 -24.7969
LeftArm  -40.5712 26.7984 -56.8343
LeftForeArm  62.7587 -18.0173 -2.08858
LeftHand  -0.827502 -3.57174 10.9609
RightShoulder  1.99413 2.64935 26.4242
RightArm  -11.6581 -25.1462 47.9099
RightForeArm  13.1163 27.2133 5.15901
RightHand  0.00243642 5.08873 -0.277883
LeftUpLeg  3.28767 0.920922 1.8526
LeftLeg  -1.93154 12.8171 -0.718575
LeftFoot  -1.34399 0.242586 -2.67391
LeftToes  4.76857e-008 1.46588e-008 1.31384e-009
660
root  -3.23243 40.939 1.01242 0.445557 -88.5213 0.204773
RightUpLeg  5.15647 -0.912567 -0.451095
RightLeg  -3.60044 -18.0498 1.11661
RightFoot  -1.2139 -0.192896 2.15328
RightToes  -3.10678e-008 1.75238e-005 3.56266e-009
Spine  -4.12343 0.677603 -4.75609
Spine1  5.61079 -0.406309 6.26497
HEad  -10.2347 -4.68295 -2.93005
LeftShoulder1  1.63396 -1.76353 -24.8194
LeftArm  -40.6545 26.5595 -56.3883
LeftForeArm  62.8502 -17.8368 -2.05652
LeftHand  -0.827608 -3.55821 10.9775
RightShoulder  2.00578 2.69824 26.3524
RightArm  -12.2541 -24.991 47.7662
RightForeArm  13.6321 27.7445 5.25223
RightHand  0.0134428 4.66231 -0.140229
LeftUpLeg  3.49264 0.93469 1.82732
LeftLeg  -2.00727 12.9542 -0.749189
LeftFoot  -1.34893 0.241875 -2.66704
LeftToes  4.76857e-008 1.46588e-008 1.31384e-009
661
root  -3.21375 40.9388 1.0106 -2.8107 -88.8188 3.29266
RightUpLeg  5.16059 -0.976808 -0.547831
RightLeg  -3.3326 -17.6686 1.00148
RightFoot  -1.3087 -0.196777 2.20593
RightToes  -3.10678e-008 1.75238e-005 3.56266e-009
Spine  -3.9849 0.77905 -4.8956
Spine1  5.57632 -0.288662 6.25129
HEad  -9.99347 -4.16141 -3.16282
LeftShoulder1  1.67528 -1.88243 -24.9074
LeftArm  -40.8982 26.195 -55.8446
LeftForeArm  63.3005 -17.2151 -1.9954
LeftHand  -0.821019 -3.56282 10.8875
RightShoulder  2.05995 2.85004 26.4322
RightArm  -12.5689 -24.8168 47.3507
RightForeArm  12.8721 28.0052 5.35422
RightHand  -0.028771 4.36096 -0.622834
LeftUpLeg  3.71873 0.925892 1.75143
LeftLeg  -2.07348 13.2552 -0.784322
LeftFoot  -1.34323 0.24488 -2.71841
LeftToes  4.76857e-008 1.46588e-008 1.31384e-009
662
root  -3.19345 40.9388 1.00592 -3.38199 -88.8937 3.73962
RightUpLeg  5.21136 -0.98179 -0.543151
RightLeg  -3.2264 -17.5955 0.951231
RightFoot  -1.3496 -0.196273 2.19072
RightToes  -3.10678e-008 1.75238e-005 3.56266e-009
Spine  -4.43344 0.662214 -5.06397
Spine1  6.44823 -0.418511 6.23055
HEad  -9.73084 -4.07966 -2.8988
LeftShoulder1  1.62931 -1.74901 -24.8175
LeftArm  -40.8477 25.3447 -55.2887
LeftForeArm  63.8257 -16.4289 -1.96389
LeftHand  -0.810532 -3.75325 10.5405
RightShoulder  2.11913 2.97466 26.7348
RightArm  -13.2015 -24.007 46.8119
RightForeArm  12.6699 27.9288 5.34762
RightHand  -0.0260213 4.43334 -0.591645
LeftUpLeg  3.81639 0.917929 1.73982
LeftLeg  -2.0429 13.3253 -0.751169
LeftFoot  -1.33971 0.245573 -2.73429
LeftToes  4.76857e-008 1.46588e-008 1.31384e-009
663
root  -3.17297 40.9389 1.00376 -2.00024 -88.9928 2.2081
RightUpLeg  5.28309 -0.946965 -0.491007
RightLeg  -3.12853 -17.5381 0.882905
RightFoot  -1.33233 -0.198458 2.21742
RightToes  -3.10678e-008 1.75238e-005 3.56266e-009
Spine  -4.62664 0.637257 -5.05275
Spine1  7.02268 -0.417607 6.02133
HEad  -9.81816 -3.90308 -2.6089
LeftShoulder1  1.6429 -1.77315 -24.9374
LeftArm  -40.8528 24.4185 -54.0317
LeftForeArm  65.2316 -15.7468 -1.7844
LeftHand  -0.792602 -4.04881 10.0091
RightShoulder  2.1067 2.87442 27.0663
RightArm  -13.2098 -22.9869 45.8329
RightForeArm  12.0084 27.3443 5.24919
RightHand  -0.00343801 4.52272 -0.326589
LeftUpLeg  3.9282 0.981584 1.79435
LeftLeg  -1.97404 13.3572 -0.753664
LeftFoot  -1.35997 0.245971 -2.74605
LeftToes  4.76857e-008 1.46588e-008 1.31384e-009
